<svg xmlns="http://www.w3.org/2000/svg" xmlns:xlink="http://www.w3.org/1999/xlink" width="500" zoomAndPan="magnify" viewBox="0 0 375 374.999991" height="500" preserveAspectRatio="xMidYMid meet" version="1.0"><defs><g/><clipPath id="c053164ab0"><path d="M 28.925781 5.242188 L 224 5.242188 L 224 365.242188 L 28.925781 365.242188 Z M 28.925781 5.242188 " clip-rule="nonzero"/></clipPath><clipPath id="a0dd479302"><path d="M 49 45 L 224.761719 45 L 224.761719 208 L 49 208 Z M 49 45 " clip-rule="nonzero"/></clipPath></defs><g clip-path="url(#c053164ab0)"><path fill="#0275cd" d="M 135.410156 192.679688 C 24.316406 205.75 9.101562 287.136719 48.882812 365.542969 C 32.34375 285.105469 62.71875 233.300781 125.703125 219.871094 C 165.152344 211.460938 215.992188 193.550781 223.621094 147.738281 C 223.769531 146.882812 223.816406 145.984375 223.921875 145.101562 C 205.8125 173.898438 175.027344 188.015625 135.410156 192.679688 Z M 191.316406 48.988281 C 196.917969 32.714844 199.59375 30.796875 216.8125 30.730469 C 200.53125 25.128906 198.613281 22.453125 198.542969 5.238281 C 192.945312 21.511719 190.265625 23.433594 173.054688 23.507812 C 189.328125 29.097656 191.246094 31.777344 191.316406 48.988281 " fill-opacity="1" fill-rule="nonzero"/></g><g clip-path="url(#a0dd479302)"><path fill="#280ecc" d="M 126.425781 125.269531 C 140.019531 125.269531 151.039062 114.246094 151.039062 100.652344 C 151.039062 87.054688 140.019531 76.03125 126.425781 76.03125 C 112.832031 76.03125 101.808594 87.054688 101.808594 100.652344 C 101.808594 114.246094 112.832031 125.269531 126.425781 125.269531 Z M 210.929688 45.039062 C 228.226562 75.246094 204.433594 120.941406 123.316406 142.398438 C 74.644531 155.269531 55.5 181.816406 49.238281 207.347656 C 65.769531 189.265625 91.78125 174.027344 128.449219 167.421875 C 168.136719 160.28125 217.925781 138.492188 224.230469 92.488281 C 226.359375 76.914062 222.164062 59.144531 210.929688 45.039062 " fill-opacity="1" fill-rule="nonzero"/></g><g fill="#280ecc" fill-opacity="1"><g transform="translate(67.315694, 364.660232)"><g><path d="M 52.546875 2.015625 C 43.253906 2.015625 34.269531 0.753906 25.59375 -1.765625 C 16.925781 -4.285156 9.960938 -7.554688 4.703125 -11.578125 L 13.9375 -32.0625 C 18.96875 -28.363281 24.953125 -25.394531 31.890625 -23.15625 C 38.828125 -20.925781 45.765625 -19.8125 52.703125 -19.8125 C 60.429688 -19.8125 66.140625 -20.957031 69.828125 -23.25 C 73.523438 -25.539062 75.375 -28.585938 75.375 -32.390625 C 75.375 -35.191406 74.28125 -37.515625 72.09375 -39.359375 C 69.914062 -41.203125 67.117188 -42.679688 63.703125 -43.796875 C 60.285156 -44.921875 55.671875 -46.15625 49.859375 -47.5 C 40.898438 -49.625 33.566406 -51.75 27.859375 -53.875 C 22.148438 -56.007812 17.253906 -59.425781 13.171875 -64.125 C 9.085938 -68.820312 7.046875 -75.085938 7.046875 -82.921875 C 7.046875 -89.742188 8.890625 -95.925781 12.578125 -101.46875 C 16.273438 -107.007812 21.84375 -111.398438 29.28125 -114.640625 C 36.726562 -117.890625 45.820312 -119.515625 56.5625 -119.515625 C 64.0625 -119.515625 71.390625 -118.617188 78.546875 -116.828125 C 85.710938 -115.035156 91.984375 -112.460938 97.359375 -109.109375 L 88.96875 -88.46875 C 78.113281 -94.613281 67.257812 -97.6875 56.40625 -97.6875 C 48.789062 -97.6875 43.164062 -96.457031 39.53125 -94 C 35.894531 -91.539062 34.078125 -88.296875 34.078125 -84.265625 C 34.078125 -80.234375 36.175781 -77.238281 40.375 -75.28125 C 44.570312 -73.320312 50.976562 -71.394531 59.59375 -69.5 C 68.539062 -67.363281 75.867188 -65.234375 81.578125 -63.109375 C 87.285156 -60.984375 92.179688 -57.625 96.265625 -53.03125 C 100.347656 -48.445312 102.390625 -42.238281 102.390625 -34.40625 C 102.390625 -27.695312 100.515625 -21.570312 96.765625 -16.03125 C 93.015625 -10.488281 87.390625 -6.09375 79.890625 -2.84375 C 72.398438 0.394531 63.285156 2.015625 52.546875 2.015625 Z M 52.546875 2.015625 "/></g></g></g><g fill="#280ecc" fill-opacity="1"><g transform="translate(174.408538, 364.660232)"><g><path d="M 13.9375 -117.5 L 41.125 -117.5 L 41.125 0 L 13.9375 0 Z M 13.9375 -117.5 "/></g></g></g><g fill="#280ecc" fill-opacity="1"><g transform="translate(229.465684, 364.660232)"><g><path d="M 104.90625 -21.828125 L 104.90625 0 L 13.9375 0 L 13.9375 -117.5 L 102.734375 -117.5 L 102.734375 -95.6875 L 40.953125 -95.6875 L 40.953125 -70.171875 L 95.515625 -70.171875 L 95.515625 -49.015625 L 40.953125 -49.015625 L 40.953125 -21.828125 Z M 104.90625 -21.828125 "/></g></g></g></svg>